HIERARCHY
ROOT Hips
{
	OFFSET 0.000000 0.000000 0.000000 
	CHANNELS 6 Xposition Yposition Zposition Zrotation Yrotation Xrotation
	JOINT LeftUpLeg
	{
		OFFSET 1.363060 -1.794630 0.839290 
		CHANNELS 3 Zrotation Yrotation Xrotation
		JOINT LeftLeg
		{
			OFFSET 2.448110 -6.726130 0.000000 
			CHANNELS 3 Zrotation Yrotation Xrotation
			JOINT LeftFoot
			{
				OFFSET 2.562200 -7.039590 0.000000 
				CHANNELS 3 Zrotation Yrotation Xrotation
				JOINT LeftToeBase
				{
					OFFSET 0.157640 -0.433110 2.322550 
					CHANNELS 3 Zrotation Yrotation Xrotation
					End Site
					{
						OFFSET 0.000000 0.000000 0.000000 
					}
				}
			}
		}
	}
	JOINT RightUpLeg
	{
		OFFSET -1.305520 -1.794630 0.839290 
		CHANNELS 3 Zrotation Yrotation Xrotation
		JOINT RightLeg
		{
			OFFSET -2.542530 -6.985550 0.000000 
			CHANNELS 3 Zrotation Yrotation Xrotation
			JOINT RightFoot
			{
				OFFSET -2.568260 -7.056230 0.000000 
				CHANNELS 3 Zrotation Yrotation Xrotation
				JOINT RightToeBase
				{
					OFFSET -0.164730 -0.452590 2.363150 
					CHANNELS 3 Zrotation Yrotation Xrotation
					End Site
					{
						OFFSET 0.000000 0.000000 0.000000 
					}
				}
			}
		}
	}
	JOINT Spine
	{
		OFFSET 0.028270 2.035590 -0.193380 
		CHANNELS 3 Zrotation Yrotation Xrotation
		JOINT Spine1
		{
			OFFSET 0.056720 2.048850 -0.042750 
			CHANNELS 3 Zrotation Yrotation Xrotation
			JOINT Neck1
			{
				OFFSET -0.054170 1.746240 0.172020 
				CHANNELS 3 Zrotation Yrotation Xrotation
				JOINT Head
				{
					OFFSET 0.104070 1.761360 -0.123970 
					CHANNELS 3 Zrotation Yrotation Xrotation
					End Site
					{
						OFFSET 0.000000 0.000000 0.000000 
					}
				}
			}
			JOINT LeftArm
			{
				OFFSET 3.362410 1.200890 -0.311210 
				CHANNELS 3 Zrotation Yrotation Xrotation
				JOINT LeftForeArm
				{
					OFFSET 4.983000 -0.000000 -0.000000 
					CHANNELS 3 Zrotation Yrotation Xrotation
					JOINT LeftHand
					{
						OFFSET 3.483560 -0.000000 -0.000000 
						CHANNELS 3 Zrotation Yrotation Xrotation
						JOINT LeftHandIndex1
						{
							OFFSET 0.715260 -0.000000 -0.000000 
							CHANNELS 3 Zrotation Yrotation Xrotation
							End Site
							{
								OFFSET 0.000000 0.000000 0.000000 
							}
						}
					}
				}
			}
			JOINT RightArm
			{
				OFFSET -3.136600 1.374050 -0.404650 
				CHANNELS 3 Zrotation Yrotation Xrotation
				JOINT RightForeArm
				{
					OFFSET -5.241900 -0.000000 -0.000000 
					CHANNELS 3 Zrotation Yrotation Xrotation
					JOINT RightHand
					{
						OFFSET -3.444170 -0.000000 -0.000000 
						CHANNELS 3 Zrotation Yrotation Xrotation
						JOINT RightHandIndex1
						{
							OFFSET -0.622530 -0.000000 -0.000000 
							CHANNELS 3 Zrotation Yrotation Xrotation
							End Site
							{
								OFFSET 0.000000 0.000000 0.000000 
							}
						}
					}
				}
			}
		}
	}
}
MOTION
Frames: 12
Frame Time: 0.041667
9.893279 17.853936 49.909047 -177.981933 3.946847 179.784579 -17.796522 -23.860241 -0.876753 -2.780171 8.213336 23.395924 -7.339254 21.541065 -13.103602 2.858100 -10.461700 -30.485200 23.738928 18.934683 -2.460812 1.991192 -8.303523 25.365072 5.450800 -19.826594 -14.626579 -0.000400 -0.121100 0.332800 1.890120 0.986201 2.270780 -3.394415 0.273243 -11.751900 15.372609 -10.491373 31.435822 3.234500 -4.195800 11.826400 -89.529652 8.490361 34.217202 24.174483 -24.142546 -6.817790 1.770978 0.937002 13.750787 -7.125000 0.000000 0.000000 87.913209 -7.606623 45.917694 -20.392315 23.356793 -5.767175 1.238653 0.395356 14.697046 7.125000 0.000000 0.000000 
9.886676 17.851224 49.911170 -178.076825 4.242901 179.715610 -17.934850 -23.647502 -0.837729 -2.799291 8.184455 23.323754 -7.363968 21.619235 -13.139681 2.868600 -10.479200 -30.543000 23.589373 18.918186 -2.550163 1.950963 -8.358782 25.524271 5.366328 -19.550468 -14.484218 -0.000100 -0.051200 0.140600 1.880662 1.122131 2.329221 -3.371552 0.347896 -11.797278 15.360977 -10.472966 31.296391 3.234200 -4.209500 11.718300 -89.560749 8.491196 34.229272 24.147886 -24.111789 -6.804289 1.764995 0.943668 13.780655 -7.125000 0.000000 0.000000 87.906479 -7.599426 45.839202 -20.395590 23.360287 -5.762578 1.239349 0.394107 14.665046 7.125000 0.000000 0.000000 
9.881605 17.851814 49.911641 -178.248354 4.505554 179.767174 -18.155266 -23.715260 -0.778302 -2.827690 8.160828 23.260509 -7.367297 21.690317 -13.404636 2.838800 -10.429300 -30.378600 23.316642 18.979411 -2.713572 1.928661 -8.391452 25.589571 5.334482 -19.396558 -14.297586 -0.000000 0.012600 -0.034600 1.848362 1.211895 2.330577 -3.278074 0.405325 -11.776237 15.141391 -10.501781 31.554973 3.146700 -4.221600 11.862600 -89.574012 8.406481 34.313432 24.061060 -24.005993 -6.760797 1.760865 0.955401 13.560905 -7.125000 0.000000 0.000000 87.852725 -7.603556 45.728939 -20.444169 23.419510 -5.783147 1.234832 0.398224 14.745426 7.125000 0.000000 0.000000 
9.879129 17.850281 49.910934 -178.337598 4.530889 179.707075 -18.281070 -23.639001 -0.725620 -2.833522 8.148911 23.232629 -7.359376 21.682056 -13.374870 2.926500 -10.575100 -30.859800 23.225225 18.983687 -2.696858 1.908008 -8.413816 25.656694 5.384405 -19.507184 -14.203981 -0.001200 0.227000 -0.623800 1.913236 1.203794 2.328926 -3.176280 0.416864 -11.834296 15.164121 -10.455462 31.595412 3.172700 -4.211000 11.856900 -89.623187 8.399886 34.305678 23.931501 -23.862232 -6.707656 1.756306 0.977345 13.918914 -7.125000 0.000000 0.000000 87.782074 -7.675708 45.648878 -20.486370 23.483944 -5.816081 1.223596 0.410964 14.888586 7.125000 0.000000 0.000000 
9.875356 17.852993 49.909165 -178.241798 4.559569 179.782053 -18.153643 -23.501726 -0.854874 -2.829598 8.143083 23.202352 -7.414605 21.770796 -13.195703 2.943000 -10.602200 -30.949700 23.286481 18.970026 -2.785749 1.900654 -8.433948 25.679402 5.412768 -19.564811 -14.051717 -0.004600 0.436100 -1.198300 2.110036 1.214438 2.227891 -3.153899 0.420995 -11.840988 15.276659 -10.408365 31.707443 3.249200 -4.202300 11.882900 -89.729303 8.460366 34.175096 23.856188 -23.773149 -6.673790 1.741748 0.998365 14.482947 -7.125000 0.000000 0.000000 87.677613 -7.735497 45.734277 -20.497970 23.506026 -5.835456 1.216496 0.419679 14.885251 7.125000 0.000000 0.000000 
9.869814 17.850870 49.906807 -178.189432 4.238081 179.604673 -18.167313 -23.547930 -0.708905 -2.814417 8.150930 23.237472 -7.374518 21.656302 -13.042576 2.913000 -10.552900 -30.786600 23.406009 18.797315 -2.583478 1.901751 -8.414446 25.693879 5.397971 -19.575321 -14.258728 -0.000500 0.146400 -0.402300 2.097165 1.052011 2.341128 -3.189785 0.334091 -11.906709 15.363706 -10.407884 31.939968 3.298700 -4.198700 11.993200 -89.759787 8.455343 34.009742 23.821759 -23.730544 -6.646545 1.742515 0.993796 14.691904 -7.125000 0.000000 0.000000 87.700035 -7.689546 45.738895 -20.457552 23.459866 -5.819999 1.217036 0.420137 14.930501 7.125000 0.000000 0.000000 
9.866041 17.848276 49.903269 -178.198034 4.096300 179.493618 -18.245605 -23.549292 -0.608488 -2.804096 8.162889 23.283993 -7.355299 21.620525 -13.026883 2.933000 -10.585800 -30.895500 23.418764 18.732054 -2.428830 1.913849 -8.385681 25.664126 5.373036 -19.557126 -14.510389 -0.000000 -0.002200 0.006100 2.172777 0.954043 2.438371 -3.130346 0.294583 -11.926472 15.411570 -10.377617 32.016048 3.328600 -4.187000 12.018900 -89.881827 8.406949 33.791932 23.735413 -23.622587 -6.591258 1.754347 0.981541 14.988252 -7.125000 0.000000 0.000000 87.694030 -7.638777 45.627749 -20.397946 23.388390 -5.795320 1.219851 0.415707 15.096888 7.125000 0.000000 0.000000 
9.862503 17.846508 49.899614 -178.136490 4.038622 179.487452 -18.240314 -23.635597 -0.539982 -2.804292 8.161869 23.284199 -7.410412 21.757714 -13.077850 2.976100 -10.656300 -31.129200 23.463892 18.717054 -2.393517 1.922760 -8.379113 25.656911 5.350184 -19.540474 -14.701622 0.000000 -0.015600 0.042700 2.345429 0.892958 2.468985 -3.086744 0.266866 -11.894428 15.382359 -10.351039 32.106863 3.336300 -4.191000 12.044000 -90.023501 8.358532 33.507615 23.673160 -23.559201 -6.569368 1.772908 0.979248 15.049938 -7.125000 0.000000 0.000000 87.623987 -7.643744 45.614886 -20.394659 23.378812 -5.789031 1.223033 0.408470 15.214005 7.125000 0.000000 0.000000 
9.857551 17.848630 49.893364 -178.152641 3.922619 179.621765 -18.257535 -23.886570 -0.530582 -2.815767 8.153718 23.252856 -7.398716 21.744988 -13.188866 2.912800 -10.552500 -30.785000 23.379312 18.716223 -2.496558 1.930900 -8.372995 25.614010 5.350623 -19.520503 -14.648756 -0.001000 -0.204200 0.561000 2.355404 0.813150 2.396657 -3.071283 0.226730 -11.777085 15.237579 -10.348370 32.248402 3.283900 -4.209900 12.084300 -90.056122 8.403456 33.366873 23.738534 -23.646186 -6.616111 1.787876 0.974452 14.828031 -7.125000 0.000000 0.000000 87.578539 -7.662846 45.693716 -20.414797 23.393902 -5.787229 1.226351 0.403998 15.180940 7.125000 0.000000 0.000000 
9.853306 17.842852 49.890181 -178.279965 3.944558 179.398988 -18.520141 -23.948582 -0.270303 -2.816963 8.160055 23.305725 -7.330354 21.646073 -13.393622 2.842200 -10.435100 -30.397500 23.280012 18.639647 -2.291200 1.924059 -8.344468 25.590261 5.395639 -19.600367 -14.523192 0.000000 -0.025500 0.069900 2.339984 0.763899 2.607134 -2.991966 0.216872 -11.799509 15.035892 -10.327517 32.363055 3.208600 -4.217100 12.128300 -90.040241 8.443183 33.560693 23.856875 -23.777493 -6.669253 1.786539 0.959850 14.544855 -7.125000 0.000000 0.000000 87.462287 -7.604732 45.857037 -20.426858 23.411646 -5.790081 1.227361 0.403596 15.021590 7.125000 0.000000 0.000000 
9.849297 17.848040 49.884757 -178.206588 3.743355 179.495910 -18.416007 -24.031098 -0.350770 -2.809491 8.162783 23.301930 -7.339055 21.633597 -13.262764 2.903700 -10.537400 -30.735200 23.325728 18.607981 -2.345453 1.940638 -8.335538 25.545875 5.461870 -19.823112 -14.685186 -0.004400 0.428800 -1.178200 2.447264 0.632917 2.673179 -2.984205 0.152247 -11.636624 15.054147 -10.123959 32.190286 3.243200 -4.142800 11.991400 -89.997296 8.407366 33.870828 23.905181 -23.819027 -6.683560 1.784783 0.948064 14.168508 -7.125000 0.000000 0.000000 87.310378 -7.562374 45.986983 -20.487945 23.479877 -5.814983 1.228166 0.400839 14.917697 7.125000 0.000000 0.000000 
9.845759 17.844503 49.884757 -178.027586 3.741192 179.391011 -18.273440 -23.944217 -0.322365 -2.797925 8.167599 23.323314 -7.382505 21.705006 -13.165200 2.977400 -10.658400 -31.136300 23.570045 18.657229 -2.162616 1.946005 -8.322489 25.545205 5.409823 -19.726374 -14.784900 -0.004500 0.434800 -1.194700 2.606121 0.598394 2.826359 -2.983335 0.119389 -11.572809 13.097349 -8.831708 33.268245 3.147800 -1.104100 12.322300 -89.955640 8.366160 34.014946 23.852739 -23.768575 -6.662928 1.780525 0.957799 14.083216 -7.125000 0.000000 0.000000 87.267676 -7.544363 45.907946 -20.565696 23.577008 -5.838958 1.225823 0.395598 14.962434 7.125000 0.000000 0.000000 
